<svg xmlns="http://www.w3.org/2000/svg" viewBox="0 0 512 512">
  <rect width="512" height="512" rx="100" fill="#0ea5e9"/>
  <path d="M256 120 C180 120 120 180 120 256 C120 332 180 392 256 392 C332 392 392 332 392 256 C392 180 332 120 256 120 Z" fill="#10b981"/>
  <path d="M256 160 C200 160 160 200 160 256 C160 312 200 352 256 352 C312 352 352 312 352 256 C352 200 312 160 256 160 Z" fill="#ffffff"/>
  <path d="M170 256 L200 256 L220 200 L260 320 L290 230 L310 256 L342 256" stroke="#0ea5e9" stroke-width="24" fill="none" stroke-linecap="round" stroke-linejoin="round"/>
</svg>
